PathFileType	4	(X/Y/Z)	13_2_103_p1_0-256_filt_butterworth.trc
DataRate	CameraRate	NumFrames	NumMarkers	Units	OrigDataRate	OrigDataStartFrame	OrigNumFrames
59.0	59.0	6	27	m	59.0	32	256
Frame#	Time	RHip			RKnee			RAnkle			RBigToe			RSmallToe			RHeel			LHip			LKnee			LAnkle			LBigToe			LSmallToe			LHeel			Neck			Head			Nose			RShoulder			RElbow			RWrist			RThumb			RIndex			RPinky			LShoulder			LElbow			LWrist			LThumb			LIndex			LPinky			
		X1	Y1	Z1	X2	Y2	Z2	X3	Y3	Z3	X4	Y4	Z4	X5	Y5	Z5	X6	Y6	Z6	X7	Y7	Z7	X8	Y8	Z8	X9	Y9	Z9	X10	Y10	Z10	X11	Y11	Z11	X12	Y12	Z12	X13	Y13	Z13	X14	Y14	Z14	X15	Y15	Z15	X16	Y16	Z16	X17	Y17	Z17	X18	Y18	Z18	X19	Y19	Z19	X20	Y20	Z20	X21	Y21	Z21	X22	Y22	Z22	X23	Y23	Z23	X24	Y24	Z24	X25	Y25	Z25	X26	Y26	Z26	X27	Y27	Z27	
32	0.5423728813559322	0.26586526760234747	0.37534636157797885	1.1324706193466394	0.2803590897045147	-0.08976852369860722	1.166608614238751	0.25871922524111035	-0.5029361261083671	1.1980092089359824	0.2596352062216421	-0.49216973361546873	0.9864691053270718	0.3208509761011167	-0.5035332618206244	1.0277523738955865	0.2407475288622975	-0.5757127278325076	1.2460491854556464	0.07735147813850432	0.3847869952982628	1.1068839592627637	0.0679924072443923	-0.09118390783270214	1.1485126658991758	0.06962409510843486	-0.49979215289258117	1.1475223838374327	0.10579205672233284	-0.47637361017407176	0.9527386374515807	0.04542542435888699	-0.49036338936507096	0.9937155273702197	0.09132852891667384	-0.553370360912836	1.2055377496301953	0.1659804952406546	0.8985351206949945	1.1657505297847237	0.18495436694182235	1.1538052874422273	1.1200799733948403	0.16904800838012207	1.0207072149366778	1.0455954936115859	0.30978827358442196	0.8681948006800221	1.1359403893642472	0.48642751264750406	0.7344716468535375	1.0172020139412739	0.4064235305633538	0.8705574304849738	0.7969455133195256	0.3383980029303175	0.930848772632581	0.7351045823278995	0.34582055544767865	0.9357790052110412	0.7120879825779061	0.36441560008003115	0.9043686647114284	0.7007020593453277	0.029908223195287565	0.8593751360136552	1.1604036137267788	-0.14047921298546928	0.7406220982507317	0.9970009710289429	-0.02699811890805675	0.8320951475076237	0.8036193751775447	0.03904772794557727	0.8618524089626379	0.7322260076806915	0.04270486779236822	0.879414400070214	0.6935966439992424	0.020324386580214432	0.8512193394248627	0.6961141354425769	
33	0.559322033898305	0.2657179550180923	0.3775460032365753	1.1324795917191528	0.28019991645781706	-0.09049997691714329	1.1679229980369177	0.258962899798559	-0.5034621222156245	1.198860731695711	0.25946982736063795	-0.49150627709043754	0.9871986293076371	0.3206656875215914	-0.5034981815216956	1.0275050699706543	0.2412337922913186	-0.5753846196178067	1.2456322793955945	0.0776461523126336	0.3867911209080174	1.106147428493466	0.06786342177315202	-0.09059222481326978	1.1485740453209634	0.06959283447401358	-0.49969961175921357	1.1473798597741316	0.10551607901089885	-0.475570538236852	0.9519996711335987	0.04458476777234012	-0.4907917828724213	0.9941949539487988	0.09158290230627988	-0.553189559820648	1.204650526028198	0.16605368341875673	0.9004601397881635	1.1653225353310774	0.18479882895845667	1.1537715718747485	1.1192477635419245	0.16867362021779608	1.0221002258063094	1.0444430470168182	0.3094965722024643	0.8694787916147122	1.1363149438318345	0.49908986790600285	0.7574155358563222	1.0035497810491396	0.42108841645189	0.9052042892792944	0.8044371955979822	0.35349305120605345	0.9739156789978713	0.7426350809009226	0.36255875198861065	0.9823224368778253	0.7237626368625097	0.3846933954394064	0.9530311762221736	0.7108731413931884	0.0294135708453536	0.8632701879537452	1.1548251633632867	-0.14955999129354103	0.7577961572410278	0.9808804868570453	-0.040249689503536676	0.8685916222380442	0.806715140884366	0.023131927637163246	0.9036048973666607	0.7462630510884096	0.02551034309407557	0.9275491721693191	0.7004340501892751	0.003285931487875502	0.9050101215256344	0.6975711867906931	
34	0.576271186440678	0.26558425183494505	0.3795741953159935	1.1328390638192087	0.2799729691669202	-0.09137939683693574	1.1689833781098835	0.2591368037357161	-0.5037834105934764	1.1994714992423494	0.2592454737353005	-0.4912127912757775	0.987413691764527	0.32060807575352357	-0.5034760146882679	1.0272995308834487	0.2418553127530314	-0.574805848586472	1.2451585414913964	0.07765618106692802	0.3883209186441006	1.105878326122625	0.06773490603739542	-0.09022860405153887	1.1486023116418427	0.06959268906376452	-0.4996534492841204	1.1473020286148365	0.10563813203462583	-0.4760960884403069	0.9525077223162965	0.04358240123253063	-0.4918555357119246	0.995573355918787	0.09185567435995368	-0.5528211376412084	1.2035018372088562	0.16655041486223365	0.9033184767881783	1.1634723859599072	0.18440151947376546	1.153790987067652	1.118654775436159	0.16886100431130668	1.0232395223241826	1.045450322558684	0.3093774173201254	0.8708001156893892	1.1363269312820163	0.5113242709619694	0.780258708052123	0.9946777959524773	0.4329568434123948	0.9382073433049479	0.8144886041447292	0.3652361239132309	1.01234308113758	0.7516578318159326	0.3750294875173811	1.0254692950296525	0.7364808239213436	0.40378262936500026	0.9984060855396556	0.7247038666573363	0.029087282041858196	0.8667385314494096	1.14792328831716	-0.15756007655288615	0.7756810946069195	0.9671703632286979	-0.05223915335677781	0.9015125533441615	0.8140012393379886	0.011426918512989586	0.941342883042179	0.7676728072642647	0.012382199290497671	0.9703467130225815	0.715749181156905	-0.011659835243317986	0.9521074750233158	0.7103782665619409	
35	0.5932203389830508	0.26536092776866843	0.3811304262381567	1.1332839415169516	0.279609279952805	-0.09244187403558435	1.1698048293418417	0.25925254719215	-0.5040301327442261	1.1999355199173538	0.25901789368311406	-0.4915116151640232	0.9873477668459194	0.32061433219630875	-0.5033559545932501	1.0270049803460106	0.24254926604708515	-0.573957565182581	1.2446045231325649	0.07748833034417671	0.38931145193612376	1.105857466821667	0.06760712075580616	-0.09012116246098806	1.1486017981656254	0.06962066147215418	-0.4996575935553275	1.1472929241198495	0.10606262640841035	-0.47755290192807826	0.9542493657630823	0.04247888549803736	-0.493273540670531	0.9975110148011981	0.09225920534916145	-0.5522453015505543	1.2021010060696675	0.16730508842583444	0.9065958978470279	1.1608030277755055	0.18378387736684682	1.1538445932934636	1.1184594515156385	0.1694297260337761	1.0241409748367105	1.0479497191646667	0.30914795223706687	0.8727814843722081	1.1355551757294275	0.5213859074132566	0.8024117824899532	0.9916394681747913	0.4409578455986158	0.9691458291057604	0.825626187830771	0.3741211758373374	1.0463139263727543	0.7609046126612186	0.38369509082314	1.0645987691119818	0.7484650873638136	0.42007122519745754	1.039546509512074	0.7400686308716808	0.029025231964944255	0.8694714418606693	1.1414021020644642	-0.16372827911096444	0.7944126666512781	0.9588422403226601	-0.062088368359288756	0.9315347935490065	0.8241256300456439	0.0043388333581467695	0.9763072182996652	0.7909811213029037	0.003208022663607047	1.007500214558387	0.7374112765579499	-0.024831751355147168	0.9924987916752929	0.733147291689721	
36	0.6101694915254238	0.2650040675039977	0.3820513639658118	1.133490031185555	0.27915127233882503	-0.09364315458755679	1.170412963043905	0.2593218012005234	-0.5042656367177779	1.2002899745709652	0.2588053221269825	-0.4923846500211052	0.9871857909642149	0.3205735400813047	-0.503088155118968	1.0265517766485952	0.24320000841378217	-0.5729696411516698	1.2440180144051467	0.07730976283089326	0.38981868821491894	1.1056848281268763	0.06748360288523647	-0.09027206007465965	1.1485695805264207	0.0696613586424357	-0.49969070451838227	1.1473114541365292	0.10662080582027905	-0.479332390588312	0.9567738582732435	0.04140865214604807	-0.49466591066610127	0.9994685632364099	0.09274600525939986	-0.5515880877350267	1.2006455223455328	0.16809203816633336	0.9097436120710901	1.1581694995549932	0.18304266172377218	1.1538495736639527	1.1186677263928941	0.17007769870020978	1.024978245297045	1.0505764471948966	0.3085892419830524	0.8756324169834967	1.1338728055680132	0.5284710645359478	0.8237472522026102	0.9926145256757188	0.44527711738237946	0.9973143437204044	0.8362336326758015	0.38091845904017363	1.076438094444573	0.7706890701659064	0.3893958879678465	1.0993440171432218	0.7598605790749737	0.43223859548762567	1.075892209411241	0.7559207777352244	0.029199447834880928	0.8711659254833674	1.1371382264338377	-0.16783296635360148	0.813024799308227	0.9575578172074389	-0.0694491402704592	0.9592288861177607	0.8359623230235705	0.0009335900626332076	1.0091278198653244	0.8122970923843288	-0.002391176836401493	1.0395339284147944	0.7626111611697497	-0.036666005787884086	1.0269072536793074	0.762525914955348	
37	0.6271186440677966	0.26455300705416845	0.3824829902387665	1.1331837045432644	0.2787227332306917	-0.09486943066809028	1.1708045786675951	0.2593493987384357	-0.5044792244604999	1.2005335362855976	0.258626950691174	-0.49349887113733937	0.9869644979406847	0.3204778521949425	-0.5028475603541512	1.026170879476611	0.2436871558567395	-0.5720696176679059	1.2434830688133434	0.07723902534135194	0.3900006909279581	1.1050434453787328	0.06736776533058934	-0.09065261520694318	1.1485117173863377	0.06969392117941199	-0.4997215817574456	1.1473212780028437	0.10714961871995433	-0.48093461652145714	0.9590980646091416	0.04052030571261418	-0.49580045375247167	1.0009148196559008	0.09310467512136353	-0.5510235550204872	1.1993605078881295	0.16867589248813122	0.912313488321494	1.1562939987142693	0.18229889442610664	1.1535876781193917	1.1191409636838858	0.1704408166240839	1.025876853270015	1.0519498831853473	0.30767847988825525	0.8792572523534645	1.1314914965859142	0.532732281617218	0.8443858881847446	0.9945364165944082	0.4470567667877831	1.0224088519159014	0.8451115647782771	0.385853054854451	1.1035941023362295	0.7824322445932422	0.3929259657942159	1.1299223784179842	0.7720677391286799	0.44015776720019073	1.1080014315604052	0.7721220678884352	0.029486038328607404	0.8716228305858061	1.1361386914025458	-0.17022501467043233	0.830311583936938	0.9619521886446554	-0.07471218683731633	0.9844792214117815	0.8482076049440306	-0.0004765382096972224	1.03959986468181	0.8304535660839838	-0.005640510028551078	1.0675516596380095	0.7894020112331486	-0.04748719667808575	1.05656185631313	0.7939165351234018	
